<?xml version="1.0" encoding="UTF-8" standalone="no"?>
<!DOCTYPE svg PUBLIC "-//W3C//DTD SVG 1.1//EN"
 "http://www.w3.org/Graphics/SVG/1.1/DTD/svg11.dtd">
<!-- Generated by graphviz version 2.43.0 (0)
 -->
<!-- Title: controllers_diagram Pages: 1 -->
<svg width="539pt" height="523pt"
 viewBox="0.00 0.00 539.00 523.00" xmlns="http://www.w3.org/2000/svg" xmlns:xlink="http://www.w3.org/1999/xlink">
<g id="graph0" class="graph" transform="scale(1 1) rotate(0) translate(4 519)">
<title>controllers_diagram</title>
<polygon fill="transparent" stroke="transparent" points="-4,4 -4,-519 535,-519 535,4 -4,4"/>
<!-- _diagram_info -->
<g id="node1" class="node">
<title>_diagram_info</title>
<text text-anchor="start" x="293" y="-183.6" font-family="Times,serif" font-size="13.00">Controllers diagram</text>
<text text-anchor="start" x="293" y="-169.6" font-family="Times,serif" font-size="13.00">Date: Jun 03 2021 &#45; 16:51</text>
<text text-anchor="start" x="293" y="-155.6" font-family="Times,serif" font-size="13.00">Migration version: 20201206144945</text>
<text text-anchor="start" x="293" y="-141.6" font-family="Times,serif" font-size="13.00">Generated by RailRoady 1.5.3</text>
<text text-anchor="start" x="293" y="-127.6" font-family="Times,serif" font-size="13.00">http://railroady.prestonlee.com</text>
</g>
<!-- UsersController -->
<g id="node2" class="node">
<title>UsersController</title>
<path fill="none" stroke="black" d="M147,-90.5C147,-90.5 236,-90.5 236,-90.5 242,-90.5 248,-96.5 248,-102.5 248,-102.5 248,-291.5 248,-291.5 248,-297.5 242,-303.5 236,-303.5 236,-303.5 147,-303.5 147,-303.5 141,-303.5 135,-297.5 135,-291.5 135,-291.5 135,-102.5 135,-102.5 135,-96.5 141,-90.5 147,-90.5"/>
<text text-anchor="middle" x="191.5" y="-288.3" font-family="Times,serif" font-size="14.00">UsersController</text>
<polyline fill="none" stroke="black" points="135,-280.5 248,-280.5 "/>
<text text-anchor="start" x="143" y="-265.3" font-family="Times,serif" font-size="14.00">change_password</text>
<text text-anchor="start" x="143" y="-250.3" font-family="Times,serif" font-size="14.00">import_file</text>
<text text-anchor="start" x="143" y="-235.3" font-family="Times,serif" font-size="14.00">invite</text>
<text text-anchor="start" x="143" y="-220.3" font-family="Times,serif" font-size="14.00">login</text>
<text text-anchor="start" x="143" y="-205.3" font-family="Times,serif" font-size="14.00">logout</text>
<text text-anchor="start" x="143" y="-190.3" font-family="Times,serif" font-size="14.00">new_login</text>
<text text-anchor="start" x="143" y="-175.3" font-family="Times,serif" font-size="14.00">show</text>
<polyline fill="none" stroke="black" points="135,-167.5 248,-167.5 "/>
<polyline fill="none" stroke="black" points="135,-143.5 248,-143.5 "/>
<text text-anchor="start" x="143" y="-128.3" font-family="Times,serif" font-size="14.00">_layout</text>
<text text-anchor="start" x="143" y="-113.3" font-family="Times,serif" font-size="14.00">user</text>
<text text-anchor="start" x="143" y="-98.3" font-family="Times,serif" font-size="14.00">user_params</text>
</g>
<!-- SubjectsController -->
<g id="node3" class="node">
<title>SubjectsController</title>
<path fill="none" stroke="black" d="M147,-330.5C147,-330.5 241,-330.5 241,-330.5 247,-330.5 253,-336.5 253,-342.5 253,-342.5 253,-441.5 253,-441.5 253,-447.5 247,-453.5 241,-453.5 241,-453.5 147,-453.5 147,-453.5 141,-453.5 135,-447.5 135,-441.5 135,-441.5 135,-342.5 135,-342.5 135,-336.5 141,-330.5 147,-330.5"/>
<text text-anchor="middle" x="194" y="-438.3" font-family="Times,serif" font-size="14.00">SubjectsController</text>
<polyline fill="none" stroke="black" points="135,-430.5 253,-430.5 "/>
<text text-anchor="start" x="143" y="-415.3" font-family="Times,serif" font-size="14.00">index</text>
<text text-anchor="start" x="143" y="-400.3" font-family="Times,serif" font-size="14.00">show</text>
<polyline fill="none" stroke="black" points="135,-392.5 253,-392.5 "/>
<polyline fill="none" stroke="black" points="135,-368.5 253,-368.5 "/>
<text text-anchor="start" x="143" y="-353.3" font-family="Times,serif" font-size="14.00">_layout</text>
<text text-anchor="start" x="143" y="-338.3" font-family="Times,serif" font-size="14.00">subject</text>
</g>
<!-- AttemptsController -->
<g id="node4" class="node">
<title>AttemptsController</title>
<path fill="none" stroke="black" d="M297,-225.5C297,-225.5 395,-225.5 395,-225.5 401,-225.5 407,-231.5 407,-237.5 407,-237.5 407,-381.5 407,-381.5 407,-387.5 401,-393.5 395,-393.5 395,-393.5 297,-393.5 297,-393.5 291,-393.5 285,-387.5 285,-381.5 285,-381.5 285,-237.5 285,-237.5 285,-231.5 291,-225.5 297,-225.5"/>
<text text-anchor="middle" x="346" y="-378.3" font-family="Times,serif" font-size="14.00">AttemptsController</text>
<polyline fill="none" stroke="black" points="285,-370.5 407,-370.5 "/>
<text text-anchor="start" x="293" y="-355.3" font-family="Times,serif" font-size="14.00">check_answer</text>
<text text-anchor="start" x="293" y="-340.3" font-family="Times,serif" font-size="14.00">create</text>
<text text-anchor="start" x="293" y="-325.3" font-family="Times,serif" font-size="14.00">new</text>
<text text-anchor="start" x="293" y="-310.3" font-family="Times,serif" font-size="14.00">show</text>
<polyline fill="none" stroke="black" points="285,-302.5 407,-302.5 "/>
<polyline fill="none" stroke="black" points="285,-278.5 407,-278.5 "/>
<text text-anchor="start" x="293" y="-263.3" font-family="Times,serif" font-size="14.00">_layout</text>
<text text-anchor="start" x="293" y="-248.3" font-family="Times,serif" font-size="14.00">attempt</text>
<text text-anchor="start" x="293" y="-233.3" font-family="Times,serif" font-size="14.00">attempt_params</text>
</g>
<!-- QuestionsController -->
<g id="node5" class="node">
<title>QuestionsController</title>
<path fill="none" stroke="black" d="M417,-420.5C417,-420.5 519,-420.5 519,-420.5 525,-420.5 531,-426.5 531,-432.5 531,-432.5 531,-502.5 531,-502.5 531,-508.5 525,-514.5 519,-514.5 519,-514.5 417,-514.5 417,-514.5 411,-514.5 405,-508.5 405,-502.5 405,-502.5 405,-432.5 405,-432.5 405,-426.5 411,-420.5 417,-420.5"/>
<text text-anchor="middle" x="468" y="-499.3" font-family="Times,serif" font-size="14.00">QuestionsController</text>
<polyline fill="none" stroke="black" points="405,-491.5 531,-491.5 "/>
<polyline fill="none" stroke="black" points="405,-467.5 531,-467.5 "/>
<polyline fill="none" stroke="black" points="405,-443.5 531,-443.5 "/>
<text text-anchor="start" x="413" y="-428.3" font-family="Times,serif" font-size="14.00">_layout</text>
</g>
<!-- PagesController -->
<g id="node6" class="node">
<title>PagesController</title>
<path fill="none" stroke="black" d="M12,-405.5C12,-405.5 92,-405.5 92,-405.5 98,-405.5 104,-411.5 104,-417.5 104,-417.5 104,-486.5 104,-486.5 104,-492.5 98,-498.5 92,-498.5 92,-498.5 12,-498.5 12,-498.5 6,-498.5 0,-492.5 0,-486.5 0,-486.5 0,-417.5 0,-417.5 0,-411.5 6,-405.5 12,-405.5"/>
<text text-anchor="middle" x="52" y="-483.3" font-family="Times,serif" font-size="14.00">PagesController</text>
<polyline fill="none" stroke="black" points="0,-475.5 104,-475.5 "/>
<text text-anchor="start" x="8" y="-460.3" font-family="Times,serif" font-size="14.00">index</text>
<polyline fill="none" stroke="black" points="0,-452.5 104,-452.5 "/>
<polyline fill="none" stroke="black" points="0,-428.5 104,-428.5 "/>
<text text-anchor="start" x="8" y="-413.3" font-family="Times,serif" font-size="14.00">_layout</text>
</g>
<!-- ApplicationController -->
<g id="node7" class="node">
<title>ApplicationController</title>
<path fill="none" stroke="black" d="M297,-0.5C297,-0.5 409,-0.5 409,-0.5 415,-0.5 421,-6.5 421,-12.5 421,-12.5 421,-81.5 421,-81.5 421,-87.5 415,-93.5 409,-93.5 409,-93.5 297,-93.5 297,-93.5 291,-93.5 285,-87.5 285,-81.5 285,-81.5 285,-12.5 285,-12.5 285,-6.5 291,-0.5 297,-0.5"/>
<text text-anchor="middle" x="353" y="-78.3" font-family="Times,serif" font-size="14.00">ApplicationController</text>
<polyline fill="none" stroke="black" points="285,-70.5 421,-70.5 "/>
<text text-anchor="start" x="293" y="-55.3" font-family="Times,serif" font-size="14.00">authenticate_user!</text>
<polyline fill="none" stroke="black" points="285,-47.5 421,-47.5 "/>
<polyline fill="none" stroke="black" points="285,-23.5 421,-23.5 "/>
<text text-anchor="start" x="293" y="-8.3" font-family="Times,serif" font-size="14.00">_layout</text>
</g>
</g>
</svg>
