<?xml version="1.0" encoding="UTF-8" standalone="no"?>
<!DOCTYPE svg PUBLIC "-//W3C//DTD SVG 1.1//EN"
 "http://www.w3.org/Graphics/SVG/1.1/DTD/svg11.dtd">
<!-- Generated by graphviz version 2.43.0 (0)
 -->
<!-- Title: models_diagram Pages: 1 -->
<svg width="1246pt" height="912pt"
 viewBox="0.00 0.00 1246.00 912.00" xmlns="http://www.w3.org/2000/svg" xmlns:xlink="http://www.w3.org/1999/xlink">
<g id="graph0" class="graph" transform="scale(1 1) rotate(0) translate(4 908)">
<title>models_diagram</title>
<polygon fill="transparent" stroke="transparent" points="-4,4 -4,-908 1242,-908 1242,4 -4,4"/>
<!-- _diagram_info -->
<g id="node1" class="node">
<title>_diagram_info</title>
<text text-anchor="start" x="8" y="-845.1" font-family="Times,serif" font-size="13.00">Models diagram</text>
<text text-anchor="start" x="8" y="-831.1" font-family="Times,serif" font-size="13.00">Date: Jun 03 2021 &#45; 16:51</text>
<text text-anchor="start" x="8" y="-817.1" font-family="Times,serif" font-size="13.00">Migration version: 20201206144945</text>
<text text-anchor="start" x="8" y="-803.1" font-family="Times,serif" font-size="13.00">Generated by RailRoady 1.5.3</text>
<text text-anchor="start" x="8" y="-789.1" font-family="Times,serif" font-size="13.00">http://railroady.prestonlee.com</text>
</g>
<!-- Subject -->
<g id="node2" class="node">
<title>Subject</title>
<path fill="none" stroke="black" d="M540,-752.5C540,-752.5 776,-752.5 776,-752.5 782,-752.5 788,-758.5 788,-764.5 788,-764.5 788,-876.5 788,-876.5 788,-882.5 782,-888.5 776,-888.5 776,-888.5 540,-888.5 540,-888.5 534,-888.5 528,-882.5 528,-876.5 528,-876.5 528,-764.5 528,-764.5 528,-758.5 534,-752.5 540,-752.5"/>
<text text-anchor="middle" x="658" y="-873.3" font-family="Times,serif" font-size="14.00">Subject</text>
<polyline fill="none" stroke="black" points="528,-865.5 788,-865.5 "/>
<text text-anchor="start" x="536" y="-850.3" font-family="Times,serif" font-size="14.00">id :bigint</text>
<text text-anchor="start" x="536" y="-835.3" font-family="Times,serif" font-size="14.00">name :character varying</text>
<text text-anchor="start" x="536" y="-820.3" font-family="Times,serif" font-size="14.00">desc :character varying</text>
<text text-anchor="start" x="536" y="-805.3" font-family="Times,serif" font-size="14.00">questions_size :integer</text>
<text text-anchor="start" x="536" y="-790.3" font-family="Times,serif" font-size="14.00">time_size :integer</text>
<text text-anchor="start" x="536" y="-775.3" font-family="Times,serif" font-size="14.00">created_at :timestamp(6) without time zone</text>
<text text-anchor="start" x="536" y="-760.3" font-family="Times,serif" font-size="14.00">updated_at :timestamp(6) without time zone</text>
</g>
<!-- Attempt -->
<g id="node6" class="node">
<title>Attempt</title>
<path fill="none" stroke="black" d="M382,-534.5C382,-534.5 618,-534.5 618,-534.5 624,-534.5 630,-540.5 630,-546.5 630,-546.5 630,-688.5 630,-688.5 630,-694.5 624,-700.5 618,-700.5 618,-700.5 382,-700.5 382,-700.5 376,-700.5 370,-694.5 370,-688.5 370,-688.5 370,-546.5 370,-546.5 370,-540.5 376,-534.5 382,-534.5"/>
<text text-anchor="middle" x="500" y="-685.3" font-family="Times,serif" font-size="14.00">Attempt</text>
<polyline fill="none" stroke="black" points="370,-677.5 630,-677.5 "/>
<text text-anchor="start" x="378" y="-662.3" font-family="Times,serif" font-size="14.00">id :bigint</text>
<text text-anchor="start" x="378" y="-647.3" font-family="Times,serif" font-size="14.00">user_id :integer</text>
<text text-anchor="start" x="378" y="-632.3" font-family="Times,serif" font-size="14.00">subject_id :integer</text>
<text text-anchor="start" x="378" y="-617.3" font-family="Times,serif" font-size="14.00">point :integer</text>
<text text-anchor="start" x="378" y="-602.3" font-family="Times,serif" font-size="14.00">start_at :timestamp without time zone</text>
<text text-anchor="start" x="378" y="-587.3" font-family="Times,serif" font-size="14.00">finish_at :timestamp without time zone</text>
<text text-anchor="start" x="378" y="-572.3" font-family="Times,serif" font-size="14.00">status :integer</text>
<text text-anchor="start" x="378" y="-557.3" font-family="Times,serif" font-size="14.00">created_at :timestamp(6) without time zone</text>
<text text-anchor="start" x="378" y="-542.3" font-family="Times,serif" font-size="14.00">updated_at :timestamp(6) without time zone</text>
</g>
<!-- Subject&#45;&gt;Attempt -->
<g id="edge2" class="edge">
<title>Subject&#45;&gt;Attempt</title>
<path fill="none" stroke="#15618e" d="M599.93,-745.63C590.5,-733.63 580.64,-721.08 570.94,-708.74"/>
<ellipse fill="none" stroke="#15618e" cx="602.7" cy="-749.15" rx="4" ry="4"/>
<polygon fill="#15618e" stroke="#15618e" points="570.77,-708.53 568.13,-697.89 567.68,-704.6 564.59,-700.67 564.59,-700.67 564.59,-700.67 567.68,-704.6 561.05,-703.45 570.77,-708.53 570.77,-708.53"/>
</g>
<!-- Question -->
<g id="node9" class="node">
<title>Question</title>
<path fill="none" stroke="black" d="M540,-331.5C540,-331.5 776,-331.5 776,-331.5 782,-331.5 788,-337.5 788,-343.5 788,-343.5 788,-485.5 788,-485.5 788,-491.5 782,-497.5 776,-497.5 776,-497.5 540,-497.5 540,-497.5 534,-497.5 528,-491.5 528,-485.5 528,-485.5 528,-343.5 528,-343.5 528,-337.5 534,-331.5 540,-331.5"/>
<text text-anchor="middle" x="658" y="-482.3" font-family="Times,serif" font-size="14.00">Question</text>
<polyline fill="none" stroke="black" points="528,-474.5 788,-474.5 "/>
<text text-anchor="start" x="536" y="-459.3" font-family="Times,serif" font-size="14.00">id :bigint</text>
<text text-anchor="start" x="536" y="-444.3" font-family="Times,serif" font-size="14.00">subject_id :integer</text>
<text text-anchor="start" x="536" y="-429.3" font-family="Times,serif" font-size="14.00">name :character varying</text>
<text text-anchor="start" x="536" y="-414.3" font-family="Times,serif" font-size="14.00">point :integer</text>
<text text-anchor="start" x="536" y="-399.3" font-family="Times,serif" font-size="14.00">recomend :integer</text>
<text text-anchor="start" x="536" y="-384.3" font-family="Times,serif" font-size="14.00">created_at :timestamp(6) without time zone</text>
<text text-anchor="start" x="536" y="-369.3" font-family="Times,serif" font-size="14.00">updated_at :timestamp(6) without time zone</text>
<text text-anchor="start" x="536" y="-354.3" font-family="Times,serif" font-size="14.00">correct_answers :integer</text>
<text text-anchor="start" x="536" y="-339.3" font-family="Times,serif" font-size="14.00">answers_count :integer</text>
</g>
<!-- Subject&#45;&gt;Question -->
<g id="edge1" class="edge">
<title>Subject&#45;&gt;Question</title>
<path fill="none" stroke="#61e956" d="M658,-743.97C658,-677.22 658,-579.65 658,-508.2"/>
<ellipse fill="none" stroke="#61e956" cx="658" cy="-748.33" rx="4" ry="4"/>
<polygon fill="#61e956" stroke="#61e956" points="658,-507.85 662.5,-497.85 658,-502.85 658,-497.85 658,-497.85 658,-497.85 658,-502.85 653.5,-497.85 658,-507.85 658,-507.85"/>
</g>
<!-- ApplicationRecord -->
<g id="node3" class="node">
<title>ApplicationRecord</title>
<ellipse fill="none" stroke="black" cx="883" cy="-820.5" rx="77.19" ry="18"/>
<text text-anchor="middle" x="883" y="-816.8" font-family="Times,serif" font-size="14.00">ApplicationRecord</text>
</g>
<!-- Variant -->
<g id="node4" class="node">
<title>Variant</title>
<path fill="none" stroke="black" d="M540,-173.5C540,-173.5 776,-173.5 776,-173.5 782,-173.5 788,-179.5 788,-185.5 788,-185.5 788,-282.5 788,-282.5 788,-288.5 782,-294.5 776,-294.5 776,-294.5 540,-294.5 540,-294.5 534,-294.5 528,-288.5 528,-282.5 528,-282.5 528,-185.5 528,-185.5 528,-179.5 534,-173.5 540,-173.5"/>
<text text-anchor="middle" x="658" y="-279.3" font-family="Times,serif" font-size="14.00">Variant</text>
<polyline fill="none" stroke="black" points="528,-271.5 788,-271.5 "/>
<text text-anchor="start" x="536" y="-256.3" font-family="Times,serif" font-size="14.00">id :bigint</text>
<text text-anchor="start" x="536" y="-241.3" font-family="Times,serif" font-size="14.00">question_id :integer</text>
<text text-anchor="start" x="536" y="-226.3" font-family="Times,serif" font-size="14.00">name :character varying</text>
<text text-anchor="start" x="536" y="-211.3" font-family="Times,serif" font-size="14.00">correct :boolean</text>
<text text-anchor="start" x="536" y="-196.3" font-family="Times,serif" font-size="14.00">created_at :timestamp(6) without time zone</text>
<text text-anchor="start" x="536" y="-181.3" font-family="Times,serif" font-size="14.00">updated_at :timestamp(6) without time zone</text>
</g>
<!-- Answer -->
<g id="node8" class="node">
<title>Answer</title>
<path fill="none" stroke="black" d="M540,-0.5C540,-0.5 776,-0.5 776,-0.5 782,-0.5 788,-6.5 788,-12.5 788,-12.5 788,-124.5 788,-124.5 788,-130.5 782,-136.5 776,-136.5 776,-136.5 540,-136.5 540,-136.5 534,-136.5 528,-130.5 528,-124.5 528,-124.5 528,-12.5 528,-12.5 528,-6.5 534,-0.5 540,-0.5"/>
<text text-anchor="middle" x="658" y="-121.3" font-family="Times,serif" font-size="14.00">Answer</text>
<polyline fill="none" stroke="black" points="528,-113.5 788,-113.5 "/>
<text text-anchor="start" x="536" y="-98.3" font-family="Times,serif" font-size="14.00">id :bigint</text>
<text text-anchor="start" x="536" y="-83.3" font-family="Times,serif" font-size="14.00">question_id :integer</text>
<text text-anchor="start" x="536" y="-68.3" font-family="Times,serif" font-size="14.00">variant_id :integer</text>
<text text-anchor="start" x="536" y="-53.3" font-family="Times,serif" font-size="14.00">correct :boolean</text>
<text text-anchor="start" x="536" y="-38.3" font-family="Times,serif" font-size="14.00">attempt_id :integer</text>
<text text-anchor="start" x="536" y="-23.3" font-family="Times,serif" font-size="14.00">created_at :timestamp(6) without time zone</text>
<text text-anchor="start" x="536" y="-8.3" font-family="Times,serif" font-size="14.00">updated_at :timestamp(6) without time zone</text>
</g>
<!-- Variant&#45;&gt;Answer -->
<g id="edge3" class="edge">
<title>Variant&#45;&gt;Answer</title>
<path fill="none" stroke="#fbf82e" d="M658,-164.91C658,-158.91 658,-152.82 658,-146.77"/>
<ellipse fill="none" stroke="#fbf82e" cx="658" cy="-169.05" rx="4" ry="4"/>
<polygon fill="#fbf82e" stroke="#fbf82e" points="658,-146.62 662.5,-136.62 658,-141.62 658,-136.62 658,-136.62 658,-136.62 658,-141.62 653.5,-136.62 658,-146.62 658,-146.62"/>
</g>
<!-- User -->
<g id="node5" class="node">
<title>User</title>
<path fill="none" stroke="black" d="M244,-737.5C244,-737.5 498,-737.5 498,-737.5 504,-737.5 510,-743.5 510,-749.5 510,-749.5 510,-891.5 510,-891.5 510,-897.5 504,-903.5 498,-903.5 498,-903.5 244,-903.5 244,-903.5 238,-903.5 232,-897.5 232,-891.5 232,-891.5 232,-749.5 232,-749.5 232,-743.5 238,-737.5 244,-737.5"/>
<text text-anchor="middle" x="371" y="-888.3" font-family="Times,serif" font-size="14.00">User</text>
<polyline fill="none" stroke="black" points="232,-880.5 510,-880.5 "/>
<text text-anchor="start" x="240" y="-865.3" font-family="Times,serif" font-size="14.00">id :bigint</text>
<text text-anchor="start" x="240" y="-850.3" font-family="Times,serif" font-size="14.00">name :character varying</text>
<text text-anchor="start" x="240" y="-835.3" font-family="Times,serif" font-size="14.00">email :character varying</text>
<text text-anchor="start" x="240" y="-820.3" font-family="Times,serif" font-size="14.00">password_digest :character varying</text>
<text text-anchor="start" x="240" y="-805.3" font-family="Times,serif" font-size="14.00">is_admin :boolean</text>
<text text-anchor="start" x="240" y="-790.3" font-family="Times,serif" font-size="14.00">remember_token :timestamp without time zone</text>
<text text-anchor="start" x="240" y="-775.3" font-family="Times,serif" font-size="14.00">user_id :integer</text>
<text text-anchor="start" x="240" y="-760.3" font-family="Times,serif" font-size="14.00">created_at :timestamp(6) without time zone</text>
<text text-anchor="start" x="240" y="-745.3" font-family="Times,serif" font-size="14.00">updated_at :timestamp(6) without time zone</text>
</g>
<!-- User&#45;&gt;Attempt -->
<g id="edge4" class="edge">
<title>User&#45;&gt;Attempt</title>
<path fill="none" stroke="#9e460d" d="M428.07,-730.58C432.57,-723.57 437.11,-716.49 441.62,-709.46"/>
<ellipse fill="none" stroke="#9e460d" cx="425.82" cy="-734.09" rx="4" ry="4"/>
<polygon fill="#9e460d" stroke="#9e460d" points="441.9,-709.02 451.09,-703.04 444.6,-704.82 447.3,-700.61 447.3,-700.61 447.3,-700.61 444.6,-704.82 443.52,-698.18 441.9,-709.02 441.9,-709.02"/>
</g>
<!-- Attempt&#45;&gt;Answer -->
<g id="edge5" class="edge">
<title>Attempt&#45;&gt;Answer</title>
<path fill="none" stroke="#2c7f8d" d="M482.25,-526.13C468.53,-432.13 460.5,-283.53 519,-173 524.55,-162.51 531.7,-152.79 539.81,-143.86"/>
<ellipse fill="none" stroke="#2c7f8d" cx="482.87" cy="-530.25" rx="4" ry="4"/>
<polygon fill="#2c7f8d" stroke="#2c7f8d" points="539.91,-143.76 550.08,-139.66 543.37,-140.15 546.83,-136.55 546.83,-136.55 546.83,-136.55 543.37,-140.15 543.59,-133.43 539.91,-143.76 539.91,-143.76"/>
</g>
<!-- Attempt&#45;&gt;Question -->
<g id="edge6" class="edge">
<title>Attempt&#45;&gt;Question</title>
<path fill="none" stroke="#26def5" d="M570.8,-526.43C576.22,-519.53 581.7,-512.57 587.12,-505.67"/>
<polygon fill="#26def5" stroke="#26def5" points="570.67,-526.59 560.95,-531.67 567.58,-530.52 564.49,-534.46 564.49,-534.46 564.49,-534.46 567.58,-530.52 568.03,-537.24 570.67,-526.59 570.67,-526.59"/>
<polygon fill="#26def5" stroke="#26def5" points="587.28,-505.47 597,-500.39 590.37,-501.54 593.46,-497.61 593.46,-497.61 593.46,-497.61 590.37,-501.54 589.92,-494.83 587.28,-505.47 587.28,-505.47"/>
</g>
<!-- Session -->
<g id="node7" class="node">
<title>Session</title>
<path fill="none" stroke="black" d="M990,-767.5C990,-767.5 1226,-767.5 1226,-767.5 1232,-767.5 1238,-773.5 1238,-779.5 1238,-779.5 1238,-861.5 1238,-861.5 1238,-867.5 1232,-873.5 1226,-873.5 1226,-873.5 990,-873.5 990,-873.5 984,-873.5 978,-867.5 978,-861.5 978,-861.5 978,-779.5 978,-779.5 978,-773.5 984,-767.5 990,-767.5"/>
<text text-anchor="middle" x="1108" y="-858.3" font-family="Times,serif" font-size="14.00">Session</text>
<polyline fill="none" stroke="black" points="978,-850.5 1238,-850.5 "/>
<text text-anchor="start" x="986" y="-835.3" font-family="Times,serif" font-size="14.00">id :bigint</text>
<text text-anchor="start" x="986" y="-820.3" font-family="Times,serif" font-size="14.00">user_id :integer</text>
<text text-anchor="start" x="986" y="-805.3" font-family="Times,serif" font-size="14.00">token :character varying</text>
<text text-anchor="start" x="986" y="-790.3" font-family="Times,serif" font-size="14.00">created_at :timestamp(6) without time zone</text>
<text text-anchor="start" x="986" y="-775.3" font-family="Times,serif" font-size="14.00">updated_at :timestamp(6) without time zone</text>
</g>
<!-- Question&#45;&gt;Variant -->
<g id="edge7" class="edge">
<title>Question&#45;&gt;Variant</title>
<path fill="none" stroke="#0bec85" d="M658,-323.18C658,-316.98 658,-310.79 658,-304.72"/>
<ellipse fill="none" stroke="#0bec85" cx="658" cy="-327.3" rx="4" ry="4"/>
<polygon fill="#0bec85" stroke="#0bec85" points="658,-304.66 662.5,-294.66 658,-299.66 658,-294.66 658,-294.66 658,-294.66 658,-299.66 653.5,-294.66 658,-304.66 658,-304.66"/>
</g>
<!-- Question&#45;&gt;Answer -->
<g id="edge8" class="edge">
<title>Question&#45;&gt;Answer</title>
<path fill="none" stroke="#00d09c" d="M778.35,-325.08C785.69,-315.69 792.09,-305.64 797,-295 819.72,-245.77 821.33,-221.46 797,-173 791.73,-162.5 784.82,-152.79 776.92,-143.88"/>
<ellipse fill="none" stroke="#00d09c" cx="775.65" cy="-328.37" rx="4" ry="4"/>
<polygon fill="#00d09c" stroke="#00d09c" points="776.9,-143.87 773.33,-133.5 773.48,-140.22 770.05,-136.58 770.05,-136.58 770.05,-136.58 773.48,-140.22 766.77,-139.67 776.9,-143.87 776.9,-143.87"/>
</g>
</g>
</svg>
