<?xml version="1.0" encoding="UTF-8" standalone="no"?>
<!DOCTYPE svg PUBLIC "-//W3C//DTD SVG 1.1//EN"
 "http://www.w3.org/Graphics/SVG/1.1/DTD/svg11.dtd">
<!-- Generated by graphviz version 2.43.0 (0)
 -->
<!-- Title: models_diagram Pages: 1 -->
<svg width="652pt" height="374pt"
 viewBox="0.00 0.00 651.70 374.00" xmlns="http://www.w3.org/2000/svg" xmlns:xlink="http://www.w3.org/1999/xlink">
<g id="graph0" class="graph" transform="scale(1 1) rotate(0) translate(4 370)">
<title>models_diagram</title>
<polygon fill="transparent" stroke="transparent" points="-4,4 -4,-370 647.7,-370 647.7,4 -4,4"/>
<!-- _diagram_info -->
<g id="node1" class="node">
<title>_diagram_info</title>
<text text-anchor="start" x="8" y="-351.6" font-family="Times,serif" font-size="13.00">Models diagram</text>
<text text-anchor="start" x="8" y="-337.6" font-family="Times,serif" font-size="13.00">Date: Jun 03 2021 &#45; 16:51</text>
<text text-anchor="start" x="8" y="-323.6" font-family="Times,serif" font-size="13.00">Migration version: 20201206144945</text>
<text text-anchor="start" x="8" y="-309.6" font-family="Times,serif" font-size="13.00">Generated by RailRoady 1.5.3</text>
<text text-anchor="start" x="8" y="-295.6" font-family="Times,serif" font-size="13.00">http://railroady.prestonlee.com</text>
</g>
<!-- Subject -->
<g id="node2" class="node">
<title>Subject</title>
<ellipse fill="none" stroke="black" cx="341" cy="-327" rx="37.09" ry="18"/>
<text text-anchor="middle" x="341" y="-323.3" font-family="Times,serif" font-size="14.00">Subject</text>
</g>
<!-- Attempt -->
<g id="node6" class="node">
<title>Attempt</title>
<ellipse fill="none" stroke="black" cx="272" cy="-234" rx="40.09" ry="18"/>
<text text-anchor="middle" x="272" y="-230.3" font-family="Times,serif" font-size="14.00">Attempt</text>
</g>
<!-- Subject&#45;&gt;Attempt -->
<g id="edge2" class="edge">
<title>Subject&#45;&gt;Attempt</title>
<path fill="none" stroke="#7266ad" d="M323.7,-303.18C313.59,-289.85 300.83,-273.02 290.52,-259.43"/>
<ellipse fill="none" stroke="#7266ad" cx="326.25" cy="-306.54" rx="4" ry="4"/>
<polygon fill="#7266ad" stroke="#7266ad" points="290.5,-259.4 288.05,-248.72 287.48,-255.42 284.46,-251.43 284.46,-251.43 284.46,-251.43 287.48,-255.42 280.88,-254.15 290.5,-259.4 290.5,-259.4"/>
</g>
<!-- Question -->
<g id="node9" class="node">
<title>Question</title>
<ellipse fill="none" stroke="black" cx="341" cy="-162" rx="42.49" ry="18"/>
<text text-anchor="middle" x="341" y="-158.3" font-family="Times,serif" font-size="14.00">Question</text>
</g>
<!-- Subject&#45;&gt;Question -->
<g id="edge1" class="edge">
<title>Subject&#45;&gt;Question</title>
<path fill="none" stroke="#3a8924" d="M341,-300.52C341,-270.6 341,-221.16 341,-190.43"/>
<ellipse fill="none" stroke="#3a8924" cx="341" cy="-304.86" rx="4" ry="4"/>
<polygon fill="#3a8924" stroke="#3a8924" points="341,-190.4 345.5,-180.4 341,-185.4 341,-180.4 341,-180.4 341,-180.4 341,-185.4 336.5,-180.4 341,-190.4 341,-190.4"/>
</g>
<!-- ApplicationRecord -->
<g id="node3" class="node">
<title>ApplicationRecord</title>
<ellipse fill="none" stroke="black" cx="473" cy="-327" rx="77.19" ry="18"/>
<text text-anchor="middle" x="473" y="-323.3" font-family="Times,serif" font-size="14.00">ApplicationRecord</text>
</g>
<!-- Variant -->
<g id="node4" class="node">
<title>Variant</title>
<ellipse fill="none" stroke="black" cx="335" cy="-90" rx="36.29" ry="18"/>
<text text-anchor="middle" x="335" y="-86.3" font-family="Times,serif" font-size="14.00">Variant</text>
</g>
<!-- Answer -->
<g id="node8" class="node">
<title>Answer</title>
<ellipse fill="none" stroke="black" cx="335" cy="-18" rx="38.19" ry="18"/>
<text text-anchor="middle" x="335" y="-14.3" font-family="Times,serif" font-size="14.00">Answer</text>
</g>
<!-- Variant&#45;&gt;Answer -->
<g id="edge3" class="edge">
<title>Variant&#45;&gt;Answer</title>
<path fill="none" stroke="#94a092" d="M335,-63.64C335,-58.06 335,-52.13 335,-46.48"/>
<ellipse fill="none" stroke="#94a092" cx="335" cy="-67.7" rx="4" ry="4"/>
<polygon fill="#94a092" stroke="#94a092" points="335,-46.1 339.5,-36.1 335,-41.1 335,-36.1 335,-36.1 335,-36.1 335,-41.1 330.5,-36.1 335,-46.1 335,-46.1"/>
</g>
<!-- User -->
<g id="node5" class="node">
<title>User</title>
<ellipse fill="none" stroke="black" cx="259" cy="-327" rx="27.1" ry="18"/>
<text text-anchor="middle" x="259" y="-323.3" font-family="Times,serif" font-size="14.00">User</text>
</g>
<!-- User&#45;&gt;Attempt -->
<g id="edge4" class="edge">
<title>User&#45;&gt;Attempt</title>
<path fill="none" stroke="#8d3d15" d="M262.61,-300.73C264.33,-288.72 266.38,-274.36 268.12,-262.13"/>
<ellipse fill="none" stroke="#8d3d15" cx="262.01" cy="-304.92" rx="4" ry="4"/>
<polygon fill="#8d3d15" stroke="#8d3d15" points="268.15,-261.94 274.02,-252.68 268.86,-256.99 269.57,-252.04 269.57,-252.04 269.57,-252.04 268.86,-256.99 265.11,-251.4 268.15,-261.94 268.15,-261.94"/>
</g>
<!-- Attempt&#45;&gt;Answer -->
<g id="edge5" class="edge">
<title>Attempt&#45;&gt;Answer</title>
<path fill="none" stroke="#0f4ac7" d="M270.38,-207.57C269.26,-174.82 270.65,-116.8 290,-72 294.76,-60.97 302.62,-50.51 310.46,-41.83"/>
<ellipse fill="none" stroke="#0f4ac7" cx="270.55" cy="-211.72" rx="4" ry="4"/>
<polygon fill="#0f4ac7" stroke="#0f4ac7" points="310.64,-41.64 320.8,-37.52 314.09,-38.02 317.55,-34.41 317.55,-34.41 317.55,-34.41 314.09,-38.02 314.29,-31.3 310.64,-41.64 310.64,-41.64"/>
</g>
<!-- Attempt&#45;&gt;Question -->
<g id="edge6" class="edge">
<title>Attempt&#45;&gt;Question</title>
<path fill="none" stroke="#e00b66" d="M294.95,-209.71C302.45,-202.1 310.78,-193.66 318.26,-186.07"/>
<polygon fill="#e00b66" stroke="#e00b66" points="294.68,-209.99 284.45,-213.96 291.17,-213.56 287.66,-217.12 287.66,-217.12 287.66,-217.12 291.17,-213.56 290.86,-220.27 294.68,-209.99 294.68,-209.99"/>
<polygon fill="#e00b66" stroke="#e00b66" points="318.38,-185.94 328.61,-181.98 321.89,-182.38 325.4,-178.82 325.4,-178.82 325.4,-178.82 321.89,-182.38 322.2,-175.66 318.38,-185.94 318.38,-185.94"/>
</g>
<!-- Session -->
<g id="node7" class="node">
<title>Session</title>
<ellipse fill="none" stroke="black" cx="606" cy="-327" rx="37.89" ry="18"/>
<text text-anchor="middle" x="606" y="-323.3" font-family="Times,serif" font-size="14.00">Session</text>
</g>
<!-- Question&#45;&gt;Variant -->
<g id="edge7" class="edge">
<title>Question&#45;&gt;Variant</title>
<path fill="none" stroke="#7e04b3" d="M338.83,-135.64C338.35,-130.06 337.84,-124.13 337.36,-118.48"/>
<ellipse fill="none" stroke="#7e04b3" cx="339.18" cy="-139.71" rx="4" ry="4"/>
<polygon fill="#7e04b3" stroke="#7e04b3" points="337.32,-118.07 340.95,-107.72 336.89,-113.09 336.47,-108.1 336.47,-108.1 336.47,-108.1 336.89,-113.09 331.98,-108.49 337.32,-118.07 337.32,-118.07"/>
</g>
<!-- Question&#45;&gt;Answer -->
<g id="edge8" class="edge">
<title>Question&#45;&gt;Answer</title>
<path fill="none" stroke="#a991d9" d="M362.41,-138.56C369.44,-129.73 376.37,-119.07 380,-108 384.99,-92.8 385.52,-87.02 380,-72 375.86,-60.72 368.13,-50.2 360.24,-41.56"/>
<ellipse fill="none" stroke="#a991d9" cx="359.65" cy="-141.85" rx="4" ry="4"/>
<polygon fill="#a991d9" stroke="#a991d9" points="360.02,-41.33 356.26,-31.03 356.53,-37.75 353.04,-34.17 353.04,-34.17 353.04,-34.17 356.53,-37.75 349.82,-37.32 360.02,-41.33 360.02,-41.33"/>
</g>
</g>
</svg>
